<svg xmlns="http://www.w3.org/2000/svg" width="1196" height="464" viewBox="0 0 1196 464"><path fill="#5D2206" d="M516.184 312.168c18.973.078 31.98 4.44 39.022 13.09 7.044 8.65 10.55 20.934 10.52 36.854-.034 16.808-3.59 29.29-10.67 37.445-7.08 8.157-20.112 12.196-39.096 12.12l.224-99.51zm402.85 14.25c0-22.102-5.515-38.033-16.543-47.8-11.026-9.765-26.244-14.687-45.653-14.766l-86.68-.355v1.326l-49.073 97.925 48.91 98.437-.002 1.327.662.003 49.02.2.04-75.014 17.878.075 31.76 75.145 49.682.203-32.443-79.13c21.63-11.852 32.444-31.047 32.444-57.575zm-52.955 8.404c-2.208 2.2-5.298 3.294-9.27 3.277l-37.068-.153.013-24.534 37.064.15c3.97.018 7.06 1.136 9.264 3.355 2.206 2.22 3.31 5.318 3.307 9.297 0 3.537-1.104 6.406-3.31 8.607zm124.082-20.698l24.462-49.612-49.626-.203 25.164 49.814zm.04 99.508l-25.15 49.692 49.68.203-24.53-49.895zm139.612-98.936l66.186.27-.077-49.712-132.335-.543-4 1.325-44.91 97.93 49.07 98.434.002 1.328.663.003 65.578.27-.176-149.304zM618.276 133.218l1.354.005c21.328.088 38.96-17.796 38.99-39.134.032-21.334-17.54-39.35-38.86-39.438l-60.575-.248 59.09 78.814z"/><path fill="#2C1A06" d="M515.848 461.47c35.33.145 60.737-8.384 76.225-25.584 15.483-17.197 23.252-41.723 23.306-73.57.045-27.416-7.637-50.877-23.045-70.386-15.404-19.506-40.75-29.33-76.04-29.474l-49.625-.203-.502 199.014 49.68.203zm.336-149.302c18.973.078 31.98 4.44 39.022 13.09 7.044 8.65 10.55 20.934 10.52 36.854-.034 16.808-3.59 29.29-10.67 37.445-7.08 8.157-20.112 12.196-39.096 12.12l.224-99.51z"/><path fill="#2C1C06" d="M689.463 412.387L662.096 462l51.812.282-24.445-49.895M716.99 264.162l-63.91-85.05c34.56-12.738 57.965-47.546 58.008-84.807.06-50.448-40.83-91.562-91.24-91.77l-125.176-.513-.126 53.133 58.388 77.795-58.57-.24-.31 130.538 52.176 2.215.163-80.346 46.058.188 97.14 127.574 27.4-48.718zm-97.36-130.938l-1.353-.005-59.09-78.814 60.575.248c21.32.087 38.892 18.103 38.86 39.437-.03 21.338-17.663 39.222-38.99 39.134zM964.91 3.95l-86.98 130.333 87.045 130.897-63.02-.26-55.53-83.66-55.6 83.205-63.018-.258 87.15-130.183L728.087 2.98l62.928.257 55.45 83.833 55.518-83.377 62.926.258zM1110.87 56.667l.03 26.07 70.4.29.075 52.5-70.42-.288.138 130.54-52.177-.215-.1-130.54-70.423-.29-.02-52.5 70.4.288-.02-26.07-80.882-.33-.016-52.118 213.815.876.078 52.12-80.877-.333z"/><g><path fill="none" d="M106.367 52.548v68.77l5.693 5.745V52.675c-1.342-.074-2.692-.115-4.05-.12l-1.643-.007zM95.13 209.375l5.692.023v-19.46l-5.693-5.747M314.212 131.972l-5.574-8.444v16.736M106.367 209.42l.933.004c1.595.006 3.185-.055 4.76-.153v-7.984l-5.693-5.75v13.884zM297.4 156.98l5.693-8.47v-33.38l-5.692-8.624M286.163 173.696l5.693-8.47v-67.12l-5.693-8.625M454.723 249.32l5.693 8.597V8.033l-5.693 8.494M443.485 232.35l5.694 8.598V24.8l-5.695 8.497M72.654 209.282l5.694.024v-42.06l-5.694-5.75M83.892 98.632l5.693 5.747v-51.9l-5.693-.024M83.892 209.328l5.693.024v-30.76l-5.693-5.748M95.13 109.975l5.692 5.746V52.526l-5.693-.023M229.977 84.756c2.4 6.348 4.31 12.93 5.693 19.717v-91.48l-5.693-8.624v80.386zM140.08 155.344l5.692 5.746V62.428c-1.85-1.03-3.754-1.977-5.693-2.86v95.776zM72.654 87.29l5.694 5.746V52.433l-5.694-.023M252.45 223.844l5.695-8.47V47.04l-5.694-8.626M128.84 144l5.694 5.748v-92.46c-1.864-.68-3.766-1.28-5.693-1.82V144zM119.16 208.456l-1.556-1.57v1.806c.52-.078 1.047-.146 1.555-.236zM229.977 257.275l5.693-8.47v-91.082c-1.38 6.736-3.292 13.285-5.693 19.62v79.932zM263.69 207.127l5.69-8.468V64.06l-5.69-8.622M173.79 172.782c2.143-3.324 4.06-6.816 5.693-10.465V99.365c-1.632-3.684-3.537-7.218-5.693-10.58v83.997zM186.2 131.447c.02-4.698-.4-9.293-1.172-13.768v26.578c.74-4.18 1.155-8.457 1.172-12.81zM117.604 132.66l5.693 5.745V54.123c-1.873-.38-3.774-.68-5.693-.92v79.456zM162.553 74.98v103.05l4.136 4.173c.53-.603 1.042-1.225 1.556-1.845v-99.2c-1.532-1.856-3.14-3.646-4.834-5.354-.28-.282-.575-.547-.86-.825zM151.315 166.686l5.693 5.747V70.038c-1.833-1.484-3.73-2.893-5.693-4.21v100.858zM274.926 190.412l5.692-8.468V81.084l-5.692-8.624M421.01 198.412l5.694 8.597V58.337l-5.693 8.495M53.112 67.564l2.76 2.787V52.34l-2.686-.01M38.943 156.936l5.693.023v-23.756l-5.693-5.748M50.18 156.982l2.5.01-.25 52.207 3.443.013V144.55l-5.693-5.747M381.754 139.13v-13.72l-4.57 6.82M387.3 147.503l5.693 8.6V108.64l-5.694 8.498M27.706 156.89l5.692.023v-35.056l-5.692-5.748M5.23 156.798l5.694.023V99.165l-5.693-5.75M432.248 215.38l5.692 8.598V41.57l-5.692 8.494M61.417 75.947l5.693 5.746V52.387l-5.693-.023M16.468 156.844l5.693.023V110.51l-5.692-5.748M61.417 209.236l5.693.023v-53.362l-5.693-5.748M409.773 181.442l5.694 8.598V75.105l-5.694 8.497M398.537 164.475l5.692 8.594V91.874l-5.693 8.493M241.214 240.56l5.692-8.468V30.015l-5.692-8.622"/><path fill="#5D2206" d="M235.67 12.994V.96L229.977.94v3.43M179.483 99.365V22.088c-1.87-1.234-3.768-2.42-5.693-3.558v70.255c2.156 3.362 4.06 6.896 5.693 10.58zM16.468 156.844V261.29l5.693.023V156.867M72.654 161.497l5.694 5.75v-74.21l-5.694-5.748M163.412 75.805c1.693 1.708 3.302 3.497 4.834 5.354V15.43c-1.875-.99-3.772-1.934-5.692-2.832v62.38c.283.277.578.542.858.825zM27.706 156.89v104.446l5.692.023V156.912M145.77 62.428v-56.3c-1.88-.58-3.778-1.12-5.692-1.612V59.57c1.94.88 3.842 1.827 5.693 2.858zM5.23 156.798v104.446l5.694.024V156.82M134.534 57.288V3.218c-1.883-.396-3.782-.747-5.693-1.06v53.31c1.928.54 3.83 1.14 5.694 1.82zM157.01 70.038V10.163c-1.88-.774-3.777-1.504-5.694-2.19v57.855c1.963 1.317 3.86 2.725 5.693 4.21zM280.618 81.083V1.145l-5.692-.023V72.46M200.45 39.056c-1.37-1.345-2.768-2.654-4.185-3.938V226.99c1.17-1.076 2.323-2.166 3.446-3.282.76-.754 1.51-1.516 2.248-2.284V40.61c-.5-.52-.998-1.04-1.507-1.554zM185.028 25.947v91.732c.773 4.474 1.19 9.07 1.172 13.767-.018 4.354-.433 8.632-1.172 12.81v91.958c1.942-1.42 3.842-2.886 5.693-4.402V30.345c-1.862-1.52-3.762-2.983-5.692-4.398zM123.297 54.123V1.373c-1.886-.226-3.783-.415-5.693-.56v52.388c1.92.244 3.82.544 5.693.923zM263.69 207.127v55.177l5.69.023V198.66M274.926 190.412v71.938l5.692.023v-80.43M207.502 46.746v168.532c1.986-2.337 3.885-4.733 5.693-7.186V53.938c-1.81-2.46-3.71-4.856-5.693-7.192zM303.093 115.13V20.104l-5.692-8.642v95.043M38.943 156.936v104.447l5.693.023V156.96M218.74 62.1v137.848c2.048-3.268 3.95-6.62 5.692-10.05V72.16c-1.744-3.442-3.65-6.795-5.692-10.062zM291.856 98.107V3.045l-1.224-1.86-4.47-.017V89.48M22.16 110.51V.085L16.47.062v104.7M241.214 240.56v21.652l5.692.023v-30.143M252.45 223.844v38.414l5.695.023v-46.905M67.11 52.387V.27L61.417.247v52.117M229.977 257.275v4.89l5.693.024v-13.383M229.977 177.345c2.4-6.335 4.313-12.885 5.693-19.62v-53.252c-1.384-6.787-3.294-13.37-5.693-19.717v92.59zM61.417 150.15l5.693 5.748V81.693l-5.693-5.746M78.348 52.433V.316L72.654.292V52.41M55.873 144.55v-74.2l-2.76-2.786.073-15.234 2.687.01V.225L50.18.2v138.603M10.924 99.164V.04L5.23.015v93.4M83.892 172.844l5.693 5.75v-74.215l-5.693-5.748M89.585 52.48V.36L83.892.34v52.116M100.822 52.525V.408L95.13.385v52.117M108.01 52.555c1.358.005 2.708.046 4.05.12V.515c-1.268-.043-2.538-.07-3.815-.077L106.367.43v52.117l1.642.008zM286.163 173.696v88.7l3.553.014 2.14-3.19v-93.993M106.367 195.538l5.693 5.75v-74.225l-5.693-5.746M33.398 121.857V.13L27.706.11v116M44.636 133.204V.178L38.943.154v127.302M258.145 47.04V1.052l-5.694-.023v37.384M246.906 30.015V1.007l-5.692-.024v20.41M95.13 184.19l5.692 5.75v-74.22l-5.693-5.745M269.38 64.06V1.1l-5.69-.024v54.362M377.185 132.23l4.57-6.82V31.32l-5.693 8.513v185.54l5.692 8.61V139.13M61.417 209.236v52.24l5.693.022v-52.24M404.23 91.875V1.652l-2.63-.01-3.063 4.58v94.146M128.84 144V259.88c1.91-.32 3.81-.683 5.694-1.085V149.748L128.84 144zM415.467 75.105V1.698l-5.694-.023v81.927M387.3 147.503v94.87l5.693 8.612v-94.883M392.993 108.64V14.514l-5.694 8.515v94.11M166.69 182.203l-4.137-4.174v71.404c1.923-.89 3.82-1.824 5.692-2.802V180.36c-.513.62-1.025 1.24-1.556 1.843zM437.94 41.57V1.79l-5.692-.023v48.297M151.315 166.686v87.346c1.918-.685 3.815-1.413 5.693-2.18v-79.42l-5.693-5.746zM140.08 155.344v102.144c1.912-.496 3.81-1.03 5.692-1.608v-94.79l-5.693-5.746zM426.704 58.338V1.744l-5.693-.023v65.113M443.485 232.35v30.69l5.694.024v-22.116M432.248 215.38v47.615l5.692.024v-39.042M117.604 132.66v74.225l1.555 1.57c-.51.09-1.037.158-1.556.236v52.572c1.906-.15 3.805-.34 5.693-.57V138.404l-5.693-5.746zM173.79 172.782v70.786c1.93-1.13 3.83-2.303 5.693-3.52v-77.73c-1.633 3.647-3.55 7.14-5.693 10.464zM72.654 209.282v52.24l5.694.022v-52.238M83.892 209.328v52.24l5.693.023v-52.238M454.723 249.32v13.768l5.693.023v-5.193M398.537 164.475v94.9l2.31 3.49 3.382.015v-89.81M107.3 209.424l-.933-.004v52.24l.697.002c1.67.007 3.335-.03 4.996-.088V209.27c-1.576.1-3.165.16-4.76.154zM421.01 198.412v64.537l5.694.023V207.01M409.773 181.442v81.46l5.694.024V190.04M95.13 209.375v52.238l5.692.024v-52.24M364.825 56.64v151.73l5.693 8.614V48.124M345.85 85.018l-3.5-5.313v104.27l3.198-4.767 2.494 3.774V81.737M331.113 62.646V200.72l5.693-8.484V71.288M460.416 8.033v-6.15l-5.693-.024v14.667M353.587 73.445V191.37l5.694 8.614V64.93M297.4 156.98v93.978l5.693-8.482V148.51M308.638 28.523v95.005l5.574 8.444-5.574 8.292v93.95l5.693-8.485V37.165M319.875 45.584v171.883l5.693-8.485V54.228M52.43 209.2l.25-52.208-2.5-.01V261.43l5.693.022v-52.24M449.18 24.8V1.837l-5.695-.023v31.484"/></g></svg>