<?xml version="1.0" encoding="utf-8"?>
<!-- Generator: Adobe Illustrator 15.1.0, SVG Export Plug-In . SVG Version: 6.00 Build 0)  -->
<!DOCTYPE svg PUBLIC "-//W3C//DTD SVG 1.1//EN" "http://www.w3.org/Graphics/SVG/1.1/DTD/svg11.dtd">
<svg version="1.1" id="dxrxt-logo-Page_x25_201" xmlns="http://www.w3.org/2000/svg" xmlns:xlink="http://www.w3.org/1999/xlink"
	 x="0px" y="0px" width="1196px" height="464px" viewBox="0 0 1196 464" enable-background="new 0 0 1196 464" xml:space="preserve"
	>
<path fill="#5D2206" d="M516.184,312.168c18.973,0.078,31.98,4.441,39.022,13.09c7.044,8.65,10.55,20.934,10.519,36.854
	c-0.033,16.808-3.589,29.289-10.669,37.445c-7.08,8.157-20.112,12.196-39.096,12.119L516.184,312.168L516.184,312.168z
	 M919.034,326.418c0-22.102-5.515-38.033-16.543-47.799c-11.027-9.766-26.245-14.688-45.654-14.767l-86.68-0.355l-0.001,1.326
	l-49.072,97.925l48.909,98.437l-0.001,1.327l0.662,0.003l0,0l0,0l49.019,0.201l0.041-75.015l17.878,0.074l31.761,75.145
	l49.681,0.203l-32.443-79.129C908.22,372.141,919.034,352.946,919.034,326.418z M866.079,334.822
	c-2.207,2.201-5.297,3.294-9.269,3.277l-37.068-0.152l0.013-24.534l37.064,0.151c3.971,0.017,7.06,1.135,9.265,3.354
	c2.206,2.219,3.309,5.318,3.307,9.297C869.39,329.752,868.286,332.621,866.079,334.822z M990.162,314.124l24.462-49.612
	l-49.626-0.203L990.162,314.124L990.162,314.124z M990.203,413.632l-25.151,49.692l49.681,0.203L990.203,413.632L990.203,413.632z
	 M1129.814,314.696l66.186,0.271l-0.077-49.713l-132.335-0.543l-3.999,1.324l-44.911,97.929l49.071,98.435l0.001,1.329l0.663,0.003
	l0,0l0,0l65.578,0.269L1129.814,314.696z M618.276,133.218l1.354,0.005c21.328,0.088,38.96-17.796,38.991-39.134
	c0.031-21.333-17.541-39.349-38.86-39.437l-60.576-0.248L618.276,133.218L618.276,133.218z"/>
<g>
	<path id="D" fill="#2C1A06" d="M515.848,461.47c35.329,0.145,60.737-8.384,76.225-25.584c15.483-17.197,23.252-41.723,23.306-73.57
		c0.046-27.416-7.636-50.877-23.044-70.386c-15.404-19.506-40.75-29.329-76.039-29.474l-49.626-0.203l-0.502,199.014L515.848,461.47
		L515.848,461.47z M516.184,312.168c18.973,0.078,31.98,4.441,39.022,13.09c7.044,8.65,10.55,20.934,10.519,36.854
		c-0.033,16.808-3.589,29.289-10.669,37.445c-7.08,8.157-20.112,12.196-39.096,12.119L516.184,312.168L516.184,312.168z"/>
	<polygon fill="#2C1C06" points="689.463,412.387 662.096,462 713.908,462.282 689.463,412.387 	"/>
	<path fill="#2C1C06" d="M716.989,264.162l-63.909-85.049c34.56-12.739,57.965-47.547,58.008-84.808
		c0.059-50.448-40.83-91.562-91.239-91.769L494.672,2.022l-0.126,53.133l58.388,77.795l-58.571-0.24l-0.31,130.538l52.177,2.215
		l0.163-80.346l46.058,0.188l97.14,127.574L716.989,264.162z M619.631,133.224l-1.354-0.005l-59.091-78.813l60.576,0.248
		c21.319,0.087,38.892,18.103,38.86,39.437C658.591,115.428,640.959,133.312,619.631,133.224z"/>
	<path fill="#2C1C06" d="M964.909,3.951l-86.978,130.332l87.044,130.897l-63.019-0.259l-55.531-83.66l-55.599,83.204l-63.019-0.258
		l87.15-130.183L728.088,2.979l62.927,0.258l55.45,83.833l55.518-83.377L964.909,3.951L964.909,3.951z"/>
	<path fill="#2C1C06" d="M1110.871,56.667l0.028,26.07l70.4,0.289l0.076,52.502l-70.421-0.289l0.139,130.54l-52.177-0.214
		l-0.101-130.54l-70.422-0.289l-0.02-52.501l70.4,0.288l-0.021-26.069l-80.881-0.332l-0.017-52.117l213.815,0.876l0.079,52.118
		L1110.871,56.667z"/>
</g>
<g>
	<path fill="none" d="M106.367,52.548v68.769l5.693,5.746V52.675c-1.342-0.074-2.692-0.115-4.051-0.12L106.367,52.548z"/>
	<polygon fill="none" points="95.129,209.375 100.822,209.398 100.822,189.939 95.129,184.191 	"/>
	<polygon fill="none" points="314.212,131.972 308.638,123.528 308.638,140.264 	"/>
	<path fill="none" d="M106.367,209.42l0.933,0.004c1.595,0.006,3.185-0.055,4.76-0.153v-7.985l-5.693-5.749V209.42z"/>
	<polygon fill="none" points="297.401,156.979 303.093,148.511 303.093,115.129 297.401,106.506 	"/>
	<polygon fill="none" points="286.163,173.696 291.856,165.227 291.856,98.107 286.163,89.481 	"/>
	<polygon fill="none" points="454.723,249.321 460.416,257.917 460.416,8.033 454.723,16.527 	"/>
	<polygon fill="none" points="443.485,232.35 449.179,240.948 449.179,24.801 443.485,33.297 	"/>
	<polygon fill="none" points="72.654,209.282 78.348,209.306 78.348,167.246 72.654,161.497 	"/>
	<polygon fill="none" points="83.892,98.632 89.585,104.379 89.585,52.479 83.892,52.456 	"/>
	<polygon fill="none" points="83.892,209.328 89.585,209.352 89.585,178.593 83.892,172.844 	"/>
	<polygon fill="none" points="95.129,109.975 100.822,115.721 100.822,52.525 95.129,52.502 	"/>
	<path fill="none" d="M229.977,84.756c2.399,6.348,4.309,12.93,5.693,19.717V12.994l-5.693-8.625V84.756z"/>
	<path fill="none" d="M140.079,155.344l5.693,5.746V62.428c-1.851-1.031-3.754-1.977-5.693-2.859V155.344z"/>
	<polygon fill="none" points="72.654,87.289 78.348,93.036 78.348,52.433 72.654,52.41 	"/>
	<polygon fill="none" points="252.451,223.844 258.145,215.375 258.145,47.039 252.451,38.414 	"/>
	<path fill="none" d="M128.841,144.001l5.693,5.747v-92.46c-1.864-0.68-3.766-1.281-5.693-1.82V144.001z"/>
	<path fill="none" d="M119.159,208.456l-1.555-1.57v1.806C118.124,208.614,118.651,208.546,119.159,208.456z"/>
	<path fill="none" d="M229.977,257.275l5.693-8.469v-91.083c-1.38,6.736-3.292,13.285-5.693,19.621V257.275z"/>
	<polygon fill="none" points="263.689,207.127 269.381,198.659 269.381,64.061 263.689,55.438 	"/>
	<path fill="none" d="M173.79,172.782c2.143-3.324,4.06-6.816,5.693-10.465V99.365c-1.632-3.684-3.537-7.218-5.693-10.58V172.782z"
		/>
	<path fill="none" d="M186.2,131.447c0.019-4.698-0.399-9.293-1.172-13.768v26.579C185.767,140.079,186.183,135.801,186.2,131.447z"
		/>
	<path fill="none" d="M117.604,132.659l5.693,5.746V54.123c-1.873-0.379-3.774-0.679-5.693-0.921V132.659z"/>
	<path fill="none" d="M162.553,74.979v103.05l4.136,4.174c0.531-0.603,1.043-1.225,1.557-1.845v-99.2
		c-1.532-1.856-3.141-3.646-4.834-5.354C163.132,75.522,162.837,75.257,162.553,74.979z"/>
	<path fill="none" d="M151.315,166.686l5.693,5.747V70.038c-1.833-1.484-3.729-2.893-5.693-4.21V166.686z"/>
	<polygon fill="none" points="274.926,190.412 280.618,181.944 280.618,81.083 274.926,72.46 	"/>
	<polygon fill="none" points="421.011,198.412 426.704,207.009 426.704,58.338 421.011,66.833 	"/>
	<polygon fill="none" points="53.112,67.564 55.873,70.351 55.873,52.341 53.186,52.33 	"/>
	<polygon fill="none" points="38.943,156.936 44.636,156.959 44.636,133.204 38.943,127.456 	"/>
	<polygon fill="none" points="50.18,156.982 52.681,156.992 52.429,209.199 55.873,209.213 55.873,144.551 50.18,138.803 	"/>
	<polygon fill="none" points="381.754,139.131 381.754,125.411 377.185,132.23 	"/>
	<polygon fill="none" points="387.299,147.503 392.993,156.102 392.993,108.641 387.299,117.138 	"/>
	<polygon fill="none" points="27.706,156.89 33.398,156.913 33.398,121.857 27.706,116.109 	"/>
	<polygon fill="none" points="5.231,156.798 10.924,156.821 10.924,99.164 5.231,93.415 	"/>
	<polygon fill="none" points="432.248,215.381 437.94,223.978 437.94,41.57 432.248,50.064 	"/>
	<polygon fill="none" points="61.417,75.947 67.11,81.693 67.11,52.387 61.417,52.364 	"/>
	<polygon fill="none" points="16.468,156.844 22.161,156.867 22.161,110.51 16.468,104.762 	"/>
	<polygon fill="none" points="61.417,209.236 67.11,209.259 67.11,155.898 61.417,150.15 	"/>
	<polygon fill="none" points="409.773,181.442 415.467,190.04 415.467,75.105 409.773,83.602 	"/>
	<polygon fill="none" points="398.537,164.475 404.229,173.069 404.229,91.875 398.537,100.368 	"/>
	<polygon fill="none" points="241.214,240.559 246.906,232.092 246.906,30.015 241.214,21.393 	"/>
	<polygon fill="#5D2206" points="235.67,12.994 235.67,0.961 229.977,0.938 229.977,4.369 	"/>
	<path fill="#5D2206" d="M179.483,99.365V22.088c-1.87-1.234-3.768-2.42-5.693-3.558v70.255
		C175.946,92.147,177.851,95.681,179.483,99.365z"/>
	<polygon fill="#5D2206" points="16.468,156.844 16.468,261.29 22.161,261.313 22.161,156.867 	"/>
	<polygon fill="#5D2206" points="72.654,161.497 78.348,167.246 78.348,93.036 72.654,87.289 	"/>
	<path fill="#5D2206" d="M163.412,75.805c1.693,1.708,3.302,3.497,4.834,5.354V15.432c-1.875-0.99-3.772-1.934-5.692-2.832v62.379
		C162.837,75.257,163.132,75.522,163.412,75.805z"/>
	<polygon fill="#5D2206" points="27.706,156.89 27.706,261.336 33.398,261.359 33.398,156.913 	"/>
	<path fill="#5D2206" d="M145.771,62.428V6.127c-1.882-0.578-3.779-1.118-5.693-1.611v55.053
		C142.018,60.451,143.92,61.397,145.771,62.428z"/>
	<polygon fill="#5D2206" points="5.231,156.798 5.231,261.244 10.924,261.268 10.924,156.821 	"/>
	<path fill="#5D2206" d="M134.534,57.288V3.219c-1.883-0.397-3.782-0.748-5.693-1.061v53.309
		C130.768,56.007,132.67,56.607,134.534,57.288z"/>
	<path fill="#5D2206" d="M157.009,70.038V10.163c-1.879-0.774-3.776-1.504-5.693-2.19v57.855
		C153.279,67.145,155.176,68.553,157.009,70.038z"/>
	<polygon fill="#5D2206" points="280.618,81.083 280.618,1.145 274.926,1.122 274.926,72.46 	"/>
	<path fill="#5D2206" d="M200.451,39.056c-1.371-1.345-2.769-2.654-4.186-3.938V226.99c1.169-1.076,2.323-2.166,3.446-3.282
		c0.759-0.754,1.508-1.516,2.247-2.284V40.611C201.458,40.091,200.96,39.569,200.451,39.056z"/>
	<path fill="#5D2206" d="M185.028,25.947v91.732c0.773,4.475,1.191,9.07,1.172,13.768c-0.018,4.354-0.433,8.632-1.172,12.811v91.957
		c1.942-1.419,3.842-2.886,5.693-4.402V30.345C188.858,28.826,186.958,27.362,185.028,25.947z"/>
	<path fill="#5D2206" d="M123.297,54.123V1.373c-1.886-0.226-3.783-0.415-5.693-0.559v52.387
		C119.523,53.444,121.424,53.744,123.297,54.123z"/>
	<polygon fill="#5D2206" points="263.689,207.127 263.689,262.304 269.381,262.327 269.381,198.659 	"/>
	<polygon fill="#5D2206" points="274.926,190.412 274.926,262.35 280.618,262.373 280.618,181.944 	"/>
	<path fill="#5D2206" d="M207.502,46.746v168.532c1.986-2.337,3.885-4.733,5.693-7.186V53.938
		C211.385,51.479,209.485,49.082,207.502,46.746z"/>
	<polygon fill="#5D2206" points="303.093,115.129 303.093,20.105 297.401,11.463 297.401,106.506 	"/>
	<polygon fill="#5D2206" points="38.943,156.936 38.943,261.383 44.636,261.406 44.636,156.959 	"/>
	<path fill="#5D2206" d="M218.74,62.1v137.848c2.048-3.268,3.949-6.619,5.692-10.051V72.162
		C222.688,68.72,220.783,65.367,218.74,62.1z"/>
	<polygon fill="#5D2206" points="291.856,98.107 291.856,3.045 290.632,1.186 286.163,1.168 286.163,89.481 	"/>
	<polygon fill="#5D2206" points="22.161,110.51 22.161,0.085 16.468,0.062 16.468,104.762 	"/>
	<polygon fill="#5D2206" points="241.214,240.559 241.214,262.212 246.906,262.235 246.906,232.092 	"/>
	<polygon fill="#5D2206" points="252.451,223.844 252.451,262.258 258.145,262.281 258.145,215.375 	"/>
	<polygon fill="#5D2206" points="67.11,52.387 67.11,0.27 61.417,0.247 61.417,52.364 	"/>
	<polygon fill="#5D2206" points="229.977,257.275 229.977,262.166 235.67,262.189 235.67,248.807 	"/>
	<path fill="#5D2206" d="M229.977,177.345c2.401-6.335,4.313-12.885,5.693-19.621v-53.251c-1.384-6.787-3.294-13.369-5.693-19.717
		V177.345z"/>
	<polygon fill="#5D2206" points="61.417,150.15 67.11,155.898 67.11,81.693 61.417,75.947 	"/>
	<polygon fill="#5D2206" points="78.348,52.433 78.348,0.316 72.654,0.292 72.654,52.41 	"/>
	<polygon fill="#5D2206" points="55.873,144.551 55.873,70.351 53.112,67.564 53.186,52.33 55.873,52.341 55.873,0.224 50.18,0.2 
		50.18,138.803 	"/>
	<polygon fill="#5D2206" points="10.924,99.164 10.924,0.039 5.231,0.016 5.231,93.415 	"/>
	<polygon fill="#5D2206" points="83.892,172.844 89.585,178.593 89.585,104.379 83.892,98.632 	"/>
	<polygon fill="#5D2206" points="89.585,52.479 89.585,0.362 83.892,0.339 83.892,52.456 	"/>
	<polygon fill="#5D2206" points="100.822,52.525 100.822,0.408 95.129,0.385 95.129,52.502 	"/>
	<path fill="#5D2206" d="M108.009,52.555c1.359,0.005,2.709,0.046,4.051,0.12V0.514c-1.268-0.042-2.538-0.07-3.815-0.076
		l-1.878-0.008v52.117L108.009,52.555z"/>
	<polygon fill="#5D2206" points="286.163,173.696 286.163,262.396 289.716,262.41 291.856,259.221 291.856,165.227 	"/>
	<polygon fill="#5D2206" points="106.367,195.538 112.06,201.287 112.06,127.063 106.367,121.317 	"/>
	<polygon fill="#5D2206" points="33.398,121.857 33.398,0.131 27.706,0.108 27.706,116.109 	"/>
	<polygon fill="#5D2206" points="44.636,133.204 44.636,0.178 38.943,0.154 38.943,127.456 	"/>
	<polygon fill="#5D2206" points="258.145,47.039 258.145,1.053 252.451,1.03 252.451,38.414 	"/>
	<polygon fill="#5D2206" points="246.906,30.015 246.906,1.007 241.214,0.983 241.214,21.393 	"/>
	<polygon fill="#5D2206" points="95.129,184.191 100.822,189.939 100.822,115.721 95.129,109.975 	"/>
	<polygon fill="#5D2206" points="269.381,64.061 269.381,1.099 263.689,1.076 263.689,55.438 	"/>
	<polygon fill="#5D2206" points="377.185,132.23 381.754,125.411 381.754,31.32 376.062,39.833 376.062,225.372 381.754,233.983 
		381.754,139.131 	"/>
	<polygon fill="#5D2206" points="61.417,209.236 61.417,261.475 67.11,261.498 67.11,209.259 	"/>
	<polygon fill="#5D2206" points="404.229,91.875 404.229,1.652 401.6,1.641 398.537,6.221 398.537,100.368 	"/>
	<path fill="#5D2206" d="M128.841,144.001v115.877c1.91-0.32,3.808-0.683,5.693-1.085V149.748L128.841,144.001z"/>
	<polygon fill="#5D2206" points="415.467,75.105 415.467,1.698 409.773,1.675 409.773,83.602 	"/>
	<polygon fill="#5D2206" points="387.299,147.503 387.299,242.372 392.993,250.985 392.993,156.102 	"/>
	<polygon fill="#5D2206" points="392.993,108.641 392.993,14.513 387.299,23.028 387.299,117.138 	"/>
	<path fill="#5D2206" d="M166.689,182.203l-4.136-4.174v71.405c1.923-0.89,3.821-1.824,5.692-2.802v-66.273
		C167.732,180.979,167.22,181.601,166.689,182.203z"/>
	<polygon fill="#5D2206" points="437.94,41.57 437.94,1.79 432.248,1.767 432.248,50.064 	"/>
	<path fill="#5D2206" d="M151.315,166.686v87.346c1.918-0.685,3.815-1.413,5.693-2.181v-79.419L151.315,166.686z"/>
	<path fill="#5D2206" d="M140.079,155.344v102.144c1.913-0.496,3.812-1.03,5.693-1.608V161.09L140.079,155.344z"/>
	<polygon fill="#5D2206" points="426.704,58.338 426.704,1.744 421.011,1.721 421.011,66.833 	"/>
	<polygon fill="#5D2206" points="443.485,232.35 443.485,263.041 449.179,263.064 449.179,240.948 	"/>
	<polygon fill="#5D2206" points="432.248,215.381 432.248,262.995 437.94,263.019 437.94,223.978 	"/>
	<path fill="#5D2206" d="M117.604,132.659v74.226l1.555,1.57c-0.508,0.09-1.036,0.158-1.555,0.236v52.571
		c1.906-0.149,3.805-0.339,5.693-0.571V138.405L117.604,132.659z"/>
	<path fill="#5D2206" d="M173.79,172.782v70.786c1.931-1.129,3.83-2.303,5.693-3.521v-77.729
		C177.85,165.965,175.933,169.458,173.79,172.782z"/>
	<polygon fill="#5D2206" points="72.654,209.282 72.654,261.521 78.348,261.544 78.348,209.306 	"/>
	<polygon fill="#5D2206" points="83.892,209.328 83.892,261.567 89.585,261.591 89.585,209.352 	"/>
	<polygon fill="#5D2206" points="454.723,249.321 454.723,263.088 460.416,263.111 460.416,257.917 	"/>
	<polygon fill="#5D2206" points="398.537,164.475 398.537,259.374 400.846,262.866 404.229,262.88 404.229,173.069 	"/>
	<path fill="#5D2206" d="M107.3,209.424l-0.933-0.004v52.239l0.697,0.003c1.67,0.007,3.335-0.03,4.996-0.088v-52.303
		C110.484,209.37,108.895,209.431,107.3,209.424z"/>
	<polygon fill="#5D2206" points="421.011,198.412 421.011,262.949 426.704,262.973 426.704,207.009 	"/>
	<polygon fill="#5D2206" points="409.773,181.442 409.773,262.903 415.467,262.926 415.467,190.04 	"/>
	<polygon fill="#5D2206" points="95.129,209.375 95.129,261.613 100.822,261.637 100.822,209.398 	"/>
	<polygon fill="#5D2206" points="364.825,56.639 364.825,208.371 370.518,216.984 370.518,48.125 	"/>
	<polygon fill="#5D2206" points="345.849,85.018 342.35,79.705 342.35,183.974 345.548,179.208 348.042,182.982 348.042,81.737 	"/>
	<polygon fill="#5D2206" points="331.113,62.646 331.113,200.72 336.806,192.236 336.806,71.288 	"/>
	<polygon fill="#5D2206" points="460.416,8.033 460.416,1.882 454.723,1.859 454.723,16.527 	"/>
	<polygon fill="#5D2206" points="353.587,73.445 353.587,191.37 359.281,199.984 359.281,64.93 	"/>
	<polygon fill="#5D2206" points="297.401,156.979 297.401,250.958 303.093,242.476 303.093,148.511 	"/>
	<polygon fill="#5D2206" points="308.638,28.523 308.638,123.528 314.212,131.972 308.638,140.264 308.638,234.213 314.331,225.729 
		314.331,37.166 	"/>
	<polygon fill="#5D2206" points="319.875,45.584 319.875,217.467 325.568,208.982 325.568,54.228 	"/>
	<polygon fill="#5D2206" points="52.429,209.199 52.681,156.992 50.18,156.982 50.18,261.429 55.873,261.452 55.873,209.213 	"/>
	<polygon fill="#5D2206" points="449.179,24.801 449.179,1.836 443.485,1.813 443.485,33.297 	"/>
</g>
</svg>
